<svg width="37" height="32" viewBox="0 0 37 32" fill="none" xmlns="http://www.w3.org/2000/svg">
<path d="M3.40415 3.56969C2.59163 4.38561 1.9471 5.35424 1.50737 6.4203C1.06764 7.48635 0.841309 8.62895 0.841309 9.78284C0.841309 10.9367 1.06764 12.0793 1.50737 13.1454C1.9471 14.2114 2.59163 15.1801 3.40415 15.996L18.3413 30.9958L33.2785 15.996C34.9194 14.3482 35.8413 12.1132 35.8413 9.78284C35.8413 7.45245 34.9194 5.21752 33.2785 3.56969C31.6375 1.92186 29.4119 0.996116 27.0913 0.996116C24.7706 0.996116 22.545 1.92186 20.9041 3.56969L18.3413 6.1432L15.7786 3.56969C14.966 2.75376 14.0014 2.10653 12.9398 1.66495C11.8782 1.22337 10.7404 0.996094 9.59135 0.996094C8.44228 0.996094 7.30446 1.22337 6.24286 1.66495C5.18126 2.10653 4.21666 2.75376 3.40415 3.56969Z" fill="white" stroke="black" stroke-opacity="0.5" stroke-width="0.8" stroke-linecap="round" stroke-linejoin="round"/>
</svg>
