<svg width="33" height="32" viewBox="0 0 33 32" fill="none" xmlns="http://www.w3.org/2000/svg">
<path d="M18.0978 8.5L24.7645 16M24.7645 16L18.0978 23.5M24.7645 16L1.43115 16M9.76449 8.5V6.625C9.76449 5.13316 10.2913 3.70242 11.229 2.64752C12.1666 1.59263 13.4384 1 14.7645 1L26.4312 1C27.7572 1 29.029 1.59263 29.9667 2.64752C30.9044 3.70242 31.4312 5.13316 31.4312 6.625L31.4312 25.375C31.4312 26.8668 30.9044 28.2976 29.9667 29.3525C29.029 30.4074 27.7572 31 26.4312 31L14.7645 31C13.4384 31 12.1666 30.4074 11.229 29.3525C10.2913 28.2976 9.76449 26.8668 9.76449 25.375V23.5" stroke="black" stroke-width="2" stroke-linecap="round" stroke-linejoin="round"/>
</svg>
